<svg xmlns="http://www.w3.org/2000/svg" width="102" height="89" viewBox="0 0 102 89">
  <defs>
    <style>
      .cls-1 {
        fill: #fff;
        fill-rule: evenodd;
      }
    </style>
  </defs>
  <g id="Text">
    <g id="Icon">
      <path id="Icon-2" data-name="Icon" class="cls-1" d="M84.568,10.181a1.971,1.971,0,1,0,1.992,1.971A1.982,1.982,0,0,0,84.568,10.181ZM94.919,8.2A24.644,24.644,0,0,0,76.351,0,28.973,28.973,0,0,0,55.518,8.754,34.964,34.964,0,0,0,51,14.313a35.007,35.007,0,0,0-4.517-5.559A28.973,28.973,0,0,0,25.649,0C10.538,0,0,12.5,0,27.372,0,47.454,21.516,64.364,49.7,88.518a2.009,2.009,0,0,0,2.609,0C80.551,64.306,102,47.426,102,27.372A28.517,28.517,0,0,0,94.919,8.2ZM51,84.422C24.391,61.647,3.984,45.289,3.984,27.372c0-13.358,9.314-23.431,21.665-23.431a24.713,24.713,0,0,1,17.9,7.488,29.374,29.374,0,0,1,5.629,7.687A1.993,1.993,0,0,0,51,20.278h0a2,2,0,0,0,1.817-1.163,29.37,29.37,0,0,1,5.629-7.687,24.71,24.71,0,0,1,17.9-7.488c12.351,0,21.665,10.073,21.665,23.431C98.016,45.694,76.263,62.8,51,84.422ZM91.536,17.2a2,2,0,0,0-2.689-.83,1.96,1.96,0,0,0-.839,2.66,18.106,18.106,0,0,1,2.039,8.34c0,5.694-2.74,11.737-8.623,19.018a1.956,1.956,0,0,0,.313,2.77,2.007,2.007,0,0,0,2.8-.309c6.477-8.018,9.494-14.843,9.494-21.479A21.776,21.776,0,0,0,91.536,17.2ZM70.125,37.768H58.969V26.733a1.981,1.981,0,0,0-1.992-1.97H45.023a1.981,1.981,0,0,0-1.992,1.97V37.768H31.875a1.981,1.981,0,0,0-1.992,1.971V51.561a1.981,1.981,0,0,0,1.992,1.97H43.031V64.566a1.981,1.981,0,0,0,1.992,1.971H56.977a1.981,1.981,0,0,0,1.992-1.971V53.532H70.125a1.981,1.981,0,0,0,1.992-1.97V39.739A1.981,1.981,0,0,0,70.125,37.768ZM68.133,49.59H56.977a1.981,1.981,0,0,0-1.992,1.97V62.6H47.016V51.561a1.981,1.981,0,0,0-1.992-1.97H33.867V41.709H45.023a1.982,1.982,0,0,0,1.992-1.971V28.7h7.969V39.738a1.981,1.981,0,0,0,1.992,1.971H68.133V49.59Z"/>
    </g>
  </g>
</svg>
