<svg xmlns="http://www.w3.org/2000/svg" width="75" height="88" viewBox="0 0 75 88">
  <defs>
    <style>
      .cls-1 {
        fill: #fff;
        fill-rule: evenodd;
      }
    </style>
  </defs>
  <g id="Text">
    <g id="Icon">
      <path id="Icon-2" data-name="Icon" class="cls-1" d="M11.419,46.059a5.588,5.588,0,0,0,2.827,4.386,18.233,18.233,0,0,0,4.274,1.738A45.666,45.666,0,0,1,13.5,63.3a13.065,13.065,0,0,0-.08,13.566c3.689,6.669,11.836,11.15,20.275,11.15A17.674,17.674,0,0,0,48.2,80.484c5.089-6.947,6.216-17.2,3.015-27.413-2.967-9.473,1-14.525,3.626-16.7a11.931,11.931,0,1,0-3.658-8.594,11.989,11.989,0,0,0,.317,2.695C46.54,34.108,40.818,42.29,44.822,55.081c2.526,8.065,1.752,16.275-2.024,21.428A11.049,11.049,0,0,1,33.691,81.3c-5.984,0-11.913-3.162-14.416-7.691a6.446,6.446,0,0,1-.1-6.756A52.21,52.21,0,0,0,25.36,52.57a17.781,17.781,0,0,0,5.764-1.932,5.572,5.572,0,0,0,2.894-4.22c7.866-7.129,11.5-19.974,11.708-20.724a3.354,3.354,0,0,0-1.653-3.848C45.162,12.2,41.6,7.346,39.452,5.365a2.424,2.424,0,0,0-1.02-2.448L34.486,0.331a1.971,1.971,0,0,0-2.893.766L29.712,4.741a1.779,1.779,0,0,0,1.116,2.623l4.463,1.32a2.909,2.909,0,0,0,3.128-1.2c1.779,1.878,4.34,6.059,3.458,14.035a3.342,3.342,0,0,0-2.607,2.39C38.2,27.765,35.1,35.735,30.5,40.512a5.547,5.547,0,0,0-4.64.258,6.311,6.311,0,0,1-2.9.8h-0.2a6.452,6.452,0,0,1-3.06-.888,5.521,5.521,0,0,0-4.577-.374c-4.5-4.8-7.528-12.6-8.583-16.4a3.352,3.352,0,0,0-2.606-2.389C3.055,13.543,5.616,9.362,7.4,7.483a2.909,2.909,0,0,0,3.127,1.2l4.464-1.32A1.779,1.779,0,0,0,16.1,4.743L14.225,1.1A1.971,1.971,0,0,0,11.332.333L7.38,2.92A2.426,2.426,0,0,0,6.363,5.369C4.217,7.349.653,12.207,1.741,21.85A3.357,3.357,0,0,0,.088,25.7C0.293,26.434,3.816,38.869,11.419,46.059ZM63.091,23.117a4.663,4.663,0,1,1-4.652,4.662A4.658,4.658,0,0,1,63.091,23.117Z"/>
    </g>
  </g>
</svg>
