<svg xmlns="http://www.w3.org/2000/svg" width="90" height="90" viewBox="0 0 90 90">
  <defs>
    <style>
      .cls-1 {
        fill: #fff;
        fill-rule: evenodd;
      }
    </style>
  </defs>
  <g id="Text">
    <g id="Icon">
      <path id="Icon-2" data-name="Icon" class="cls-1" d="M86.27,21.688L90,17.959,72.041,0l-3.73,3.729,2.625,2.625-9.318,9.318L52.032,6.087,48.3,9.816l5.247,5.247L12.135,56.478l4.414,4.414L7.72,69.721l4.415,4.415L0,86.27,3.729,90,15.864,77.865l4.415,4.415,8.829-8.829,4.414,4.415L74.936,36.451,80.183,41.7l3.73-3.73-9.586-9.586,9.319-9.318ZM20.279,74.82l-5.1-5.1,5.1-5.1,5.1,5.1Zm13.243-4.415L19.594,56.478l5.324-5.324,3.213,3.213,3.73-3.729-3.213-3.213,3.772-3.772,3.213,3.213,3.73-3.73-3.214-3.213,3.772-3.772L53.848,50.08ZM57.578,46.35L43.65,32.422l3.772-3.772,3.213,3.213,3.73-3.729L51.151,24.92l6.127-6.127L71.207,32.721ZM70.6,24.652l-5.25-5.25,9.319-9.318,5.25,5.25Z"/>
    </g>
  </g>
</svg>
